<svg  viewBox="0 0 346 178" fill="none" xmlns="http://www.w3.org/2000/svg">
<g filter="url(#filter0_f_5_133)">
</g>
<rect x="40" y="42.5718" width="266" height="91" rx="45.5" fill="#6FBBC4"/>
<path d="M272.751 63.3587C266.579 59.3857 254.949 66.4581 246.776 79.1554C238.603 91.8527 236.981 105.367 243.153 109.34C249.325 113.313 260.955 106.241 269.128 93.5432C277.301 80.8459 278.923 67.3318 272.751 63.3587Z" fill="#D7F0EE"/>
<path d="M274.332 64.3313C268.512 60.5852 257.169 67.8417 248.996 80.539C240.822 93.2364 238.915 106.566 244.734 110.312C250.554 114.058 261.897 106.802 270.07 94.1047C278.244 81.4073 280.152 68.0773 274.332 64.3313Z" fill="#1B403D"/>
<path d="M273.663 63.6647C267.843 59.9186 256.5 67.1751 248.327 79.8724C240.154 92.5697 238.246 105.9 244.065 109.646C249.885 113.392 261.228 106.135 269.401 93.438C277.575 80.7407 279.483 67.4107 273.663 63.6647Z" fill="#1C5955"/>
<path d="M269.276 65.035C264.867 62.1971 255.495 68.9031 248.344 80.0132C241.192 91.1234 238.969 102.431 243.378 105.268C247.786 108.106 257.158 101.4 264.309 90.2902C271.461 79.1801 273.684 67.8729 269.276 65.035Z" fill="#2A867F"/>
<path d="M80.2545 116.031C87.1704 115.764 92.6129 111.301 92.4107 106.061C92.2086 100.822 86.4382 96.7911 79.5223 97.058C72.6064 97.3248 67.1639 101.788 67.3661 107.028C67.5683 112.267 73.3386 116.298 80.2545 116.031Z" fill="#D7F0EE"/>
<path d="M80.5201 114.269C87.436 114.002 92.8851 109.709 92.691 104.679C92.4969 99.6492 86.7331 95.7882 79.8172 96.0551C72.9014 96.322 67.4523 100.616 67.6464 105.645C67.8405 110.675 73.6043 114.536 80.5201 114.269Z" fill="#1B403D"/>
<path d="M80.5192 115.169C87.4351 114.902 92.8842 110.608 92.69 105.578C92.4959 100.549 86.7322 96.6875 79.8163 96.9544C72.9004 97.2213 67.4513 101.515 67.6454 106.545C67.8395 111.575 73.6033 115.436 80.5192 115.169Z" fill="#1C5955"/>
<path d="M80.5707 115.095C86.6483 114.86 91.4572 111.612 91.3116 107.84C91.166 104.068 86.1211 101.2 80.0435 101.434C73.9659 101.669 69.1571 104.917 69.3027 108.689C69.4482 112.462 74.4931 115.329 80.5707 115.095Z" fill="#2A867F"/>
<defs>
<filter id="filter0_f_5_133" x="0" y="0.571838" width="346" height="177" filterUnits="userSpaceOnUse" color-interpolation-filters="sRGB">
<feFlood flood-opacity="0" result="BackgroundImageFix"/>
<feBlend mode="normal" in="SourceGraphic" in2="BackgroundImageFix" result="shape"/>
<feGaussianBlur stdDeviation="15" result="effect1_foregroundBlur_5_133"/>
</filter>
</defs>
</svg>
